<svg width="128" height="129" viewBox="0 0 128 129" fill="none" xmlns="http://www.w3.org/2000/svg">
	<path d="M64 20.1257C74.5827 20.1257 84 29.5431 84 40.1257C84 50.7084 74.5827 60.1257 64 60.1257C53.4173 60.1257 44 50.7084 44 40.1257C44.1102 29.5431 53.5276 20.1257 64 20.1257ZM64 12.1257C48.5669 12.1257 36 24.6927 36 40.1257C36 55.5588 48.5669 68.1257 64 68.1257C79.4331 68.1257 92 55.5588 92 40.1257C92 24.6927 79.4331 12.1257 64 12.1257Z" fill="black"/>
	<path d="M102 116.126C100 116.126 98 114.126 98 112.126C98 96.1257 80.577 84.1257 64 84.1257C47.3147 84.1257 30 96.1257 30 112.126C30.0001 114.126 28 116.126 26 116.126C24 116.126 22 114.223 22 112.126C22 90.1257 43.0892 76.1257 64 76.1257C84.9109 76.1257 106 90.2235 106 112.126C106 114.126 104 116.126 102 116.126C101.783 116.126 102.325 116.126 102 116.126Z" fill="black"/>
</svg>
