<svg width="128" height="128" viewBox="0 0 128 128" fill="none" xmlns="http://www.w3.org/2000/svg">
	<path fill-rule="evenodd" clip-rule="evenodd" d="M91.9995 36V52H97.9995C101.313 52 104 54.6863 104 58V114C104 117.314 101.313 120 97.9995 120H29.9995C26.6858 120 23.9995 117.314 23.9995 114V58C23.9995 54.6863 26.6858 52 29.9995 52H35.7138V36C35.7138 20.1764 48.5995 8 64.9995 8C81.3995 8 91.9995 20.2886 91.9995 36ZM43.9995 52H83.9995V36C83.9995 25.2265 75.2452 16 63.9995 16C52.7538 16 43.9995 25.1142 43.9995 36V52ZM31.9995 112V60H95.9995V112H31.9995Z" fill="black"/>
	<path d="M63.9995 72C57.4395 72 51.9995 77.44 51.9995 84C51.9995 90.56 57.4395 96 63.9995 96C70.5595 96 75.9995 90.56 75.9995 84C75.9995 77.44 70.5595 72 63.9995 72Z" fill="black"/>
</svg>
