<svg xmlns="http://www.w3.org/2000/svg" width="100%" height="100%" viewBox="0 0 500 500">
    <path d="M250.008 0C111.92 0 0 111.933 0 250c0 68.4 27.518 130.333 72.036 175.467l-.017.133h.117A249.225 249.217 0 0 0 250.008 500C388.08 500 500 388.067 500 250S388.08 0 250.008 0m0 21.667C375.93 21.667 478.35 124.1 478.35 250c0 57.167-21.267 109.35-56.102 149.433C393.18 335.6 326.594 294.55 251.058 294.55c-76.502 0-143.888 42.083-171.905 106.417C43.5 360.667 21.667 307.9 21.667 250c0-125.9 102.437-228.333 228.341-228.333M95.437 417.583a44.168 44.167 0 0 1 2.4-5.533c24.217-57.3 85.802-95.817 153.205-95.817 67.402 0 128.97 38.517 152.938 95.1.05.1.983 2.8 1.633 5.284-40.8 38.15-95.453 61.733-155.605 61.733-59.652 0-113.853-23.183-154.571-60.767M250.008 274.05a95.303 95.3 0 0 1-95.186-95.183 95.32 95.317 0 0 1 95.186-95.184 95.303 95.3 0 0 1 95.17 95.184 95.303 95.3 0 0 1-95.17 95.183m0-168.683a73.586 73.583 0 0 0-73.502 73.5 73.586 73.583 0 0 0 73.502 73.5 73.586 73.583 0 0 0 73.503-73.5 73.602 73.6 0 0 0-73.503-73.5" fill="#0089a3">
    </path>
</svg>