<svg xmlns="http://www.w3.org/2000/svg" width="100%" height="100%" viewBox="0 0 500 500" fill="#0089a3"><path d="M101.236.006a12.414 12.414 0 0 0-1.826.207 12.414 12.414 0 0 0-1.068-.041H15.59a12.414 12.414 0 1 0 0 24.826h76.074l41.348 188.889 29.342 134.039.004.02c2.922 13.15 14.877 22.132 27.841 22.132h242.465a12.414 12.414 0 1 0 0-24.826H190.2c-1.929 0-3.216-.947-3.605-2.69l-11.186-51.1h256.428c12.965 0 23.35-8.986 27.346-19.64l.289-.767 37.422-162.168a12.414 12.414 0 0 0 .34-3.41A12.414 12.414 0 0 0 484.798 91.2H131.57l-17.79-81.27A12.414 12.414 0 0 0 101.235.007zm35.768 116.021h332.764L435.76 263.393c-.944 2.289-2.095 3.244-3.924 3.244H171.992a12.414 12.414 0 0 0-1.986.146l-12.742-58.205z"></path><path d="M203.44 407.316c-25.447 0-46.342 20.895-46.342 46.342S177.993 500 203.439 500c25.447 0 46.342-20.895 46.342-46.342s-20.895-46.342-46.342-46.342zm0 24.827c12.03 0 21.515 9.485 21.515 21.515 0 12.03-9.486 21.516-21.516 21.516-12.03 0-21.515-9.486-21.515-21.516 0-12.03 9.486-21.515 21.515-21.515z"></path><path d="M392.115 407.316c-25.447 0-46.342 20.895-46.342 46.342S366.668 500 392.115 500s46.342-20.895 46.342-46.342-20.895-46.342-46.342-46.342zm0 24.827c12.03 0 21.516 9.485 21.516 21.515 0 12.03-9.486 21.516-21.516 21.516-12.03 0-21.515-9.486-21.515-21.516 0-12.03 9.485-21.515 21.515-21.515z"></path></svg>