<svg xmlns="http://www.w3.org/2000/svg" width="100%" height="100%" viewBox="0 0 500 500" fill="#3bd373">
<path d="M177.961 105.732a15.843 15.843 0 0 1-15.843-15.843V30.23a16.09 16.09 0 0 1 31.934 0v59.66a15.843 15.843 0 0 1-16.09 15.842zm153.728 0a15.843 15.843 0 0 1-15.844-15.843V30.23a15.843 15.843 0 0 1 31.687 0v59.66a15.843 15.843 0 0 1-15.843 15.842zM445.313 484.73H54.187A49.51 49.51 0 0 1 .221 430.763V96.325a49.51 49.51 0 0 1 53.966-53.718h391.126a49.51 49.51 0 0 1 54.46 53.718v334.438a49.51 49.51 0 0 1-54.46 53.966zM54.187 74.294c-16.833 0-22.28 5.446-22.28 22.031v334.438c0 16.833 5.447 22.28 22.28 22.28h391.126c16.833 0 22.032-5.447 22.032-22.28V96.325c0-16.585-5.199-22.031-22.032-22.031z" fill="#3bd373"></path><path d="M388.377 162.42h-41.093v45.797h41.093zM388.377 354.023h-41.093v45.55h41.093zM347.284 308.474h41.093v-45.549h-41.093zM152.71 162.42h-41.092v45.797h41.093zM271.286 162.42h-41.093v45.797h41.093zM152.71 308.474v-45.549h-41.092v45.55zM271.286 354.023h-41.093v45.55h41.093zM271.286 308.474v-45.549h-41.093v45.55zM152.71 354.023h-41.092v45.55h41.093z" fill="#3bd373"></path></svg>