<svg xmlns="http://www.w3.org/2000/svg" width="100%" height="100%" viewBox="0 0 500 500">
    <path d="M123.523 13.828c-49.235 0-82.651 21.413-100.86 50.203C4.452 92.821 0 127.246 0 156.178c0 32.686 16.352 67.247 39.121 102.484 22.77 35.237 52.607 70.95 82.334 103.152C180.91 426.22 240.213 476.67 240.213 476.67L250 485l9.787-8.33s59.304-50.45 118.758-114.856c29.727-32.202 59.565-67.915 82.334-103.152C483.648 223.425 500 188.864 500 156.178c0-28.932-4.453-63.356-22.662-92.147-18.21-28.79-51.626-50.203-100.861-50.203-57.588 0-93.88 19.957-114.608 40.815-4.726 4.755-8.587 9.575-11.869 14.216-3.282-4.64-7.143-9.46-11.87-14.216-20.727-20.858-57.02-40.815-114.607-40.815zm0 30.201c50.836 0 77.781 16.401 93.186 31.903 15.405 15.5 18.635 29.353 18.635 29.353h29.312s3.23-13.852 18.635-29.353c15.405-15.502 42.35-31.903 93.186-31.903 41.134 0 61.928 14.945 75.337 36.147 13.41 21.201 17.985 50.403 17.985 76.002 0 21.844-13.01 53.17-34.285 86.093-21.275 32.924-50.163 67.644-79.16 99.057-43.792 47.44-87.489 87.127-106.354 103.8-18.865-16.673-62.562-56.36-106.354-103.8-28.997-31.413-57.885-66.133-79.16-99.057-21.274-32.923-34.285-64.249-34.285-86.093 0-25.599 4.575-54.8 17.985-76.002 13.41-21.202 34.203-36.147 75.337-36.147z" fill="#0089a3">
    </path>
</svg>