<svg xmlns="http://www.w3.org/2000/svg" width="100%" height="100%" viewBox="0 0 500 500"><path d="M337.997 310.782c11.322 0 21.631-4.418 29.455-11.506 7.824 7.088 18.133 11.506 29.455 11.506 24.393 0 44.183-19.79 44.183-44.182 0-24.393-19.79-44.183-44.183-44.183-11.322 0-21.63 4.418-29.455 11.506-7.824-7.088-18.133-11.506-29.455-11.506-24.392 0-44.182 19.79-44.182 44.183 0 24.392 19.79 44.182 44.182 44.182z" fill="#929db6"></path><path d="M470.545 75.142h-353.46c-16.293 0-29.456 13.162-29.456 29.455v81.001h382.916v154.64H210.052v29.454h260.493c16.292 0 29.455-13.163 29.455-29.455v-235.64c0-16.293-13.163-29.455-29.455-29.455z" fill="#929db6"></path><path d="M87.63 214.869L0 239.538v107.327c-.092 27.43 20.987 46.667 43.815 59.646C65.63 418.845 85.696 423.54 87.629 424c.92-.184 6.351-1.657 14.267-4.418 3.774-1.289 8.377-2.854 13.163-4.97 4.142-1.842 8.745-4.235 13.163-6.536 2.853-1.565 5.43-3.222 8.192-4.97 1.657-1.013 3.314-2.21 4.97-3.314 9.666-6.628 18.502-14.728 24.67-24.117l2.208-2.761c4.51-7.824 7.088-16.477 7.088-26.234V239.446zm-5.984 132.456L50.442 316.12l12.61-12.058 18.594 18.685 30.652-31.204 12.61 12.61z" fill="#929db6"></path></svg>