<svg xmlns="http://www.w3.org/2000/svg" width="100%" height="100%" viewBox="0 0 500 500"><path d="M413.947 98.547H85.446a17.032 17.032 0 1 1 0-33.805h328.501a17.032 17.032 0 1 1 0 33.805zm-26.063 401.272H111.51c-24.608 2.362-45.308-18.215-43.095-42.836V80.225c0-9.406 8.155-1.671 17.561-1.671 9.407 0 16.502-7.735 16.502 1.671v376.758c0 7.483 0 8.773 9.032 8.773h276.375c8 0 9.032 0 9.29-9.031v-376.5c1.056-8.532 9.365-1.168 17.962-1.168s14.787-7.364 15.843 1.168v376.758c1.82 24.476-18.63 44.804-43.095 42.836zM85.446 98.547H67.124a17.032 17.032 0 1 1 0-33.805h18.322a17.032 17.032 0 1 1 0 33.805zm256.763-6.71a17.032 17.032 0 0 1-17.032-17.031v-18.58a22.45 22.45 0 0 0-5.935-18.58 30.966 30.966 0 0 0-16.257-3.612H198.473c-16.773 0-22.193 5.419-22.193 22.192v18.58a17.032 17.032 0 0 1-34.063 0v-18.58A51.61 51.61 0 0 1 198.473.23h104.512a63.481 63.481 0 0 1 35.095 9.29 51.61 51.61 0 0 1 21.16 46.707v18.58a17.032 17.032 0 0 1-17.031 17.031zm92.125 6.71h-20.387a17.032 17.032 0 0 1 0-33.805h20.387a17.032 17.032 0 1 1 0 33.805z" fill="#008aa4"></path><path d="M320.016 412.34a17.032 17.032 0 0 1-17.031-17.032v-226.57a17.032 17.032 0 1 1 33.805 0v226.57a17.032 17.032 0 0 1-16.774 17.031z" fill="#008aa4"></path><path d="M248.793 412.34a17.29 17.29 0 0 1-17.031-17.032v-226.57a17.032 17.032 0 1 1 34.063 0v226.57a17.29 17.29 0 0 1-17.032 17.031z" fill="#008aa4"></path><path d="M177.57 412.34a17.032 17.032 0 0 1-16.773-17.032v-226.57a17.032 17.032 0 1 1 33.805 0v226.57a17.032 17.032 0 0 1-17.031 17.031z" fill="#008aa4"></path></svg>