<svg xmlns="http://www.w3.org/2000/svg" width="26px" height="30px" viewBox="0 0 500 500"><path d="M0 405.92a291.87 291.87 0 0 0 448.984-258.74A207.52 207.52 0 0 0 500 94.133a203.252 203.252 0 0 1-58.943 16.057 101.626 101.626 0 0 0 45.122-56.708 200 200 0 0 1-65.04 24.797 102.846 102.846 0 0 0-175 93.7A290.854 290.854 0 0 1 34.755 64.66a102.642 102.642 0 0 0 32.317 136.586A100.203 100.203 0 0 1 19.92 187.83a103.049 103.049 0 0 0 82.317 101.626 101.626 101.626 0 0 1-46.342 1.626 102.846 102.846 0 0 0 95.935 71.342A206.3 206.3 0 0 1 0 405.92z" fill="#008aa4"></path></svg>